<svg style="position: absolute; width: 0; height: 0; overflow: hidden;" version="1.1" xmlns="http://www.w3.org/2000/svg" xmlns:xlink="http://www.w3.org/1999/xlink">
<defs>
<symbol id="icon-icon1" viewBox="0 0 32 32">
<title>icon1</title>
<path class="path1" d="M3.341 9.007c0.103-0.131 0.273-0.188 0.436-0.182 1.173-0.031 2.351 0.254 3.379 0.818 0.85 0.463 1.593 1.116 2.167 1.894 0.4 0.534 0.712 1.132 0.946 1.756 0.611-1.242 1.613-2.287 2.831-2.945 1.086-0.59 2.338-0.872 3.572-0.794 1.574 0.086 3.102 0.765 4.235 1.859 0.561 0.556 1.052 1.195 1.382 1.916 0.358-1.036 0.981-1.981 1.79-2.721 0.873-0.816 1.972-1.383 3.14-1.633 0.549-0.128 1.116-0.169 1.678-0.136 0.184 0.009 0.352 0.136 0.42 0.305 0.031 0.084 0.032 0.177 0.063 0.262 0.848 1.845 1.268 3.868 1.368 5.89 0.102 2.236-0.174 4.506-0.935 6.618-0.066 0.228-0.3 0.338-0.505 0.41-0.382 0.046-0.768 0.065-1.151 0.025-1.984-0.101-3.873-1.187-5.012-2.806-0.208-0.296-0.392-0.609-0.556-0.931-0.365 1.020-0.975 1.954-1.771 2.69-0.854 0.796-1.922 1.36-3.060 1.62-0.365 0.092-0.742 0.113-1.116 0.146-0.31 0.031-0.623 0.010-0.933-0.014-1.049-0.071-2.076-0.42-2.964-0.981-0.403-0.235-0.758-0.539-1.102-0.851-0.433-0.407-0.794-0.886-1.109-1.388-0.224-0.389-0.427-0.792-0.573-1.217-0.46 0.939-1.143 1.765-1.975 2.398-0.984 0.743-2.176 1.225-3.409 1.317-0.298 0.020-0.598 0.060-0.896 0.026-0.103-0.003-0.218-0.043-0.309 0.024-0.177 0.105-0.417 0.074-0.567-0.065-0.079-0.069-0.125-0.166-0.159-0.263-0.499-1.392-0.783-2.857-0.893-4.33-0.133-1.818-0.002-3.658 0.415-5.433 0.235-0.99 0.567-1.958 1.004-2.879 0.073-0.128 0.065-0.291 0.169-0.403zM4.088 9.815c-0.225 0.445-0.418 0.908-0.568 1.384-0.363 1.022-0.581 2.089-0.711 3.164-0.265 2.337-0.080 4.739 0.642 6.982 0.279 0.024 0.56 0.048 0.839 0.013 1.111-0.045 2.196-0.457 3.083-1.123 0.924-0.7 1.633-1.681 1.999-2.781-0.681 0.279-1.404 0.457-2.139 0.512-0.278 0.015-0.556 0.050-0.835 0.036-0.24-0.014-0.443-0.227-0.452-0.465-0.020-0.258 0.194-0.508 0.454-0.519 0.46-0.006 0.919-0.046 1.373-0.117 0.622-0.119 1.226-0.331 1.788-0.622 0.003-0.337 0.036-0.673 0.082-1.006-0.059-0.033-0.12-0.064-0.169-0.11-0.802-0.836-1.84-1.44-2.959-1.735-0.118-0.030-0.243-0.064-0.33-0.155-0.169-0.158-0.198-0.438-0.067-0.628 0.113-0.177 0.344-0.26 0.545-0.203 0.976 0.248 1.909 0.685 2.704 1.306-0.452-1.406-1.483-2.619-2.797-3.293-0.764-0.4-1.62-0.62-2.481-0.64zM27.053 10.037c-1.115 0.313-2.12 0.985-2.854 1.879-0.38 0.46-0.679 0.983-0.905 1.534 0.803-0.581 1.721-1.002 2.687-1.224 0.145-0.033 0.303 0.006 0.418 0.101 0.169 0.134 0.229 0.384 0.14 0.581-0.064 0.15-0.205 0.259-0.364 0.289-1.156 0.272-2.233 0.872-3.069 1.716-0.058 0.063-0.125 0.117-0.197 0.164-0.017 0.229 0.043 0.454 0.056 0.682 0.362 0.179 0.743 0.32 1.132 0.428 0.571 0.169 1.169 0.211 1.761 0.235 0.187-0.004 0.397-0.052 0.56 0.069 0.253 0.159 0.293 0.551 0.078 0.758-0.163 0.178-0.421 0.152-0.64 0.164-0.279-0.008-0.557-0.030-0.835-0.053-0.687-0.058-1.359-0.239-1.999-0.491 0.119 0.497 0.285 0.986 0.53 1.436 0.242 0.436 0.516 0.858 0.856 1.226 0.171 0.192 0.371 0.353 0.558 0.529 0.764 0.637 1.697 1.075 2.679 1.24 0.435 0.053 0.875 0.107 1.313 0.063 0.211-0.602 0.371-1.22 0.498-1.844 0.413-2.081 0.433-4.24 0.063-6.329-0.209-1.158-0.54-2.298-1.037-3.366-0.481 0.023-0.965 0.077-1.429 0.214zM14.279 10.893c2.46 2.46 4.92 4.919 7.379 7.379 0.179-0.504 0.293-1.033 0.322-1.567-0.019-0.213-0.052-0.425-0.083-0.637-0.008-0.289 0.016-0.58-0.010-0.869-0.26-1.371-1.039-2.634-2.143-3.487-0.458-0.333-0.95-0.63-1.485-0.821-1.268-0.481-2.711-0.475-3.98 0.002zM12.104 12.355c2.709 2.713 5.42 5.423 8.132 8.133 0.386-0.369 0.712-0.797 0.981-1.258-2.626-2.626-5.254-5.25-7.876-7.879-0.457 0.276-0.871 0.617-1.237 1.005zM10.947 14.207c-0.252 0.642-0.378 1.33-0.396 2.018-0.007 0.119 0.040 0.234 0.032 0.353-0.036 0.313 0.036 0.625 0.098 0.931 0.196 1.019 0.7 1.969 1.393 2.737 0.883 0.95 2.087 1.612 3.377 1.786 0.33 0.033 0.661 0.070 0.994 0.056 0.419-0.036 0.843-0.056 1.249-0.172 0.629-0.162 1.227-0.436 1.766-0.797-2.656-2.66-5.314-5.317-7.973-7.973-0.207 0.339-0.404 0.687-0.541 1.061z"></path>
</symbol>
<symbol id="icon-icon2" viewBox="0 0 32 32">
<title>icon2</title>
<path class="path1" d="M3.356 8.99c0.090-0.1 0.222-0.159 0.356-0.162 1.178-0.045 2.365 0.234 3.403 0.793 0.887 0.476 1.66 1.158 2.25 1.974 0.38 0.519 0.677 1.097 0.904 1.698 0.61-1.242 1.612-2.287 2.83-2.945 1.086-0.59 2.338-0.872 3.572-0.794 1.567 0.085 3.088 0.759 4.22 1.843 0.568 0.56 1.065 1.205 1.399 1.932 0.355-1.037 0.98-1.98 1.788-2.721 0.867-0.811 1.959-1.377 3.119-1.629 0.556-0.132 1.131-0.175 1.701-0.141 0.176 0.009 0.337 0.126 0.411 0.285 0.039 0.090 0.039 0.191 0.073 0.284 0.847 1.845 1.268 3.867 1.367 5.889 0.1 2.195-0.164 4.42-0.892 6.498-0.046 0.141-0.1 0.295-0.234 0.376-0.126 0.074-0.257 0.158-0.408 0.165-0.213 0.013-0.425 0.036-0.638 0.037-0.391-0.020-0.783-0.045-1.17-0.108-1.060-0.19-2.067-0.649-2.913-1.313-0.809-0.615-1.446-1.435-1.906-2.337-0.397 1.104-1.079 2.106-1.973 2.867-0.874 0.75-1.945 1.267-3.076 1.486-0.276 0.053-0.556 0.068-0.836 0.094-0.46 0.049-0.923-0-1.381-0.046-0.93-0.127-1.829-0.463-2.618-0.97-0.374-0.221-0.704-0.506-1.027-0.794-0.448-0.413-0.819-0.904-1.143-1.418-0.224-0.39-0.429-0.795-0.574-1.222-0.488 1.010-1.243 1.887-2.157 2.535-0.781 0.553-1.683 0.933-2.623 1.11-0.38 0.064-0.766 0.087-1.15 0.112-0.194 0.011-0.386-0.026-0.579-0.025-0.093 0.037-0.181 0.1-0.286 0.098-0.22 0.019-0.432-0.131-0.5-0.338-0.465-1.273-0.742-2.611-0.877-3.958-0.187-1.946-0.071-3.924 0.373-5.829 0.236-1 0.57-1.977 1.010-2.905 0.074-0.135 0.068-0.308 0.184-0.42zM4.089 9.814c-0.166 0.325-0.312 0.661-0.44 1.004-0.176 0.507-0.348 1.015-0.478 1.536-0.392 1.596-0.538 3.251-0.455 4.892 0.071 1.39 0.305 2.775 0.735 4.1 0.215 0.011 0.43 0.046 0.646 0.027 0.333-0.024 0.668-0.043 0.996-0.108 0.771-0.158 1.509-0.478 2.151-0.934 0.989-0.703 1.746-1.725 2.13-2.876-0.75 0.309-1.552 0.488-2.363 0.527-0.251 0.005-0.514 0.066-0.757-0.014-0.258-0.098-0.387-0.432-0.255-0.677 0.074-0.153 0.232-0.264 0.403-0.273 0.459-0.007 0.918-0.046 1.372-0.117 0.623-0.118 1.227-0.331 1.789-0.622 0.004-0.337 0.035-0.672 0.082-1.005-0.101-0.050-0.188-0.121-0.262-0.206-0.8-0.8-1.821-1.374-2.916-1.654-0.148-0.032-0.29-0.113-0.364-0.249-0.126-0.21-0.063-0.508 0.138-0.647 0.127-0.096 0.299-0.115 0.449-0.070 0.966 0.249 1.889 0.684 2.677 1.297-0.484-1.504-1.629-2.785-3.075-3.424-0.687-0.321-1.444-0.485-2.201-0.506zM27.052 10.037c-1.115 0.313-2.119 0.986-2.853 1.88-0.38 0.459-0.678 0.981-0.904 1.532 0.794-0.573 1.7-0.99 2.652-1.215 0.146-0.040 0.311-0.014 0.432 0.079 0.168 0.121 0.243 0.353 0.176 0.549-0.052 0.172-0.206 0.303-0.382 0.336-1.156 0.273-2.233 0.872-3.069 1.716-0.059 0.062-0.126 0.116-0.196 0.164-0.016 0.229 0.042 0.454 0.056 0.681 0.47 0.232 0.97 0.4 1.481 0.514 0.443 0.097 0.898 0.121 1.349 0.147 0.208 0.011 0.442-0.064 0.625 0.072 0.252 0.159 0.291 0.55 0.076 0.757-0.155 0.17-0.399 0.153-0.608 0.163-0.278-0.004-0.556-0.028-0.833-0.050-0.699-0.055-1.382-0.237-2.033-0.493 0.12 0.497 0.286 0.986 0.53 1.436 0.286 0.515 0.618 1.011 1.046 1.42 0.218 0.198 0.431 0.402 0.673 0.572 0.826 0.595 1.811 0.984 2.829 1.053 0.285 0.024 0.572 0.045 0.858 0.012 0.529-1.537 0.783-3.162 0.817-4.785 0.033-1.189-0.066-2.381-0.285-3.549-0.211-1.102-0.533-2.187-1.007-3.205-0.481 0.025-0.966 0.077-1.429 0.215zM16.041 10.538c-0.99 0.034-1.967 0.344-2.801 0.876-1.055 0.661-1.876 1.681-2.312 2.845-0.239 0.627-0.358 1.296-0.376 1.966-0.005 0.118 0.038 0.233 0.032 0.351-0.034 0.307 0.033 0.613 0.094 0.912 0.17 0.892 0.571 1.736 1.137 2.445 0.299 0.399 0.676 0.731 1.068 1.037 0.826 0.604 1.81 1.012 2.836 1.088 0.318 0.029 0.639 0.051 0.957 0.011 1.502-0.074 2.94-0.822 3.916-1.957 0.802-0.93 1.296-2.12 1.387-3.344 0.007-0.174-0.038-0.345-0.053-0.517-0.053-0.252-0.018-0.509-0.027-0.763 0.021-0.328-0.093-0.643-0.18-0.954-0.363-1.131-1.078-2.147-2.027-2.862-0.445-0.314-0.917-0.598-1.431-0.781-0.705-0.268-1.465-0.386-2.218-0.352z"></path>
<path class="path2" d="M13.229 14.068c0.166-0.043 0.349 0.014 0.47 0.135 1.259 1.26 2.518 2.521 3.779 3.78 0.209 0.192 0.197 0.571-0.028 0.745-0.132 0.105-0.318 0.143-0.477 0.082-0.165-0.056-0.268-0.204-0.389-0.319-1.039-1.039-2.078-2.080-3.118-3.119-0.176-0.188-0.378-0.352-0.537-0.554-0.188-0.269-0.019-0.684 0.302-0.748z"></path>
<path class="path3" d="M16.643 15.264c0.177-0.056 0.381-0.012 0.51 0.124 0.916 0.919 1.836 1.835 2.752 2.754 0.182 0.172 0.194 0.485 0.026 0.671-0.135 0.164-0.379 0.217-0.572 0.133-0.108-0.045-0.187-0.135-0.267-0.216-0.869-0.868-1.736-1.739-2.608-2.605-0.102-0.099-0.184-0.232-0.178-0.379-0.013-0.212 0.134-0.42 0.336-0.482z"></path>
</symbol>
<symbol id="icon-icon3" viewBox="0 0 32 32">
<title>icon3</title>
<path class="path1" d="M3.363 8.914c0.118-0.023 0.228-0.082 0.349-0.086 1.083-0.040 2.176 0.188 3.149 0.664 1.404 0.672 2.546 1.86 3.188 3.275 0.080 0.172 0.158 0.346 0.22 0.526 0.546-1.108 1.401-2.064 2.448-2.72 1.167-0.744 2.572-1.107 3.954-1.020 1.568 0.085 3.088 0.759 4.22 1.843 0.568 0.561 1.067 1.205 1.399 1.935 0.57-1.676 1.849-3.091 3.445-3.851 0.982-0.464 2.077-0.712 3.164-0.642 0.125 0.007 0.232 0.079 0.347 0.122 0.504 0.196 0.939 0.556 1.238 1.005 0.689 1.012 0.674 2.445-0.044 3.438 0.412 0.332 0.719 0.781 0.903 1.275 0.354 0.983 0.185 2.159-0.5 2.961 0.559 0.734 0.75 1.727 0.514 2.618-0.205 0.813-0.775 1.544-1.555 1.874-0.117 0.061-0.257 0.063-0.367 0.139-0.132 0.083-0.294 0.066-0.443 0.081-0.479 0.049-0.961-0.010-1.437-0.064-1.761-0.268-3.388-1.292-4.412-2.747-0.209-0.294-0.389-0.608-0.556-0.927-0.398 1.111-1.087 2.119-1.989 2.882-0.845 0.721-1.874 1.224-2.962 1.452-0.317 0.070-0.642 0.087-0.964 0.116-0.346 0.036-0.694 0.011-1.040-0.018-1.218-0.093-2.388-0.574-3.366-1.297-0.452-0.355-0.887-0.742-1.233-1.204-0.463-0.579-0.829-1.236-1.074-1.935-0.469 0.977-1.193 1.827-2.064 2.47-0.984 0.716-2.166 1.176-3.384 1.255-0.289 0.020-0.58 0.053-0.87 0.018-0.184-0.023-0.37-0.013-0.555-0.024-0.492-0.089-0.959-0.329-1.315-0.68-0.82-0.79-1.086-2.075-0.703-3.139 0.081-0.252 0.202-0.491 0.358-0.704-0.48-0.511-0.738-1.205-0.775-1.9 0.007-0.128 0.009-0.256 0.005-0.384 0.064-0.836 0.494-1.646 1.177-2.141-0.366-0.542-0.54-1.204-0.504-1.856 0.047-0.681 0.306-1.359 0.78-1.857 0.333-0.361 0.765-0.648 1.25-0.753zM2.894 10.288c-0.412 0.396-0.602 0.99-0.558 1.554 0.040 0.442 0.195 0.889 0.507 1.214 0.109 0.107 0.17 0.262 0.149 0.415-0.012 0.155-0.128 0.269-0.19 0.405-0.066 0.136-0.212 0.196-0.332 0.273-0.376 0.243-0.627 0.641-0.756 1.063-0.067 0.223-0.066 0.459-0.061 0.69 0.033 0.501 0.233 1.010 0.622 1.341 0.115 0.109 0.277 0.172 0.354 0.318 0.112 0.188 0.074 0.446-0.084 0.597-0.075 0.078-0.178 0.115-0.28 0.143-0.086 0.172-0.202 0.331-0.256 0.518-0.239 0.658-0.116 1.441 0.328 1.984 0.235 0.246 0.518 0.474 0.862 0.535 0.202-0.002 0.404 0.018 0.605 0.034 0.188 0.018 0.376-0.009 0.564-0.020 1.205-0.064 2.374-0.561 3.287-1.346 0.9-0.772 1.553-1.826 1.842-2.977-0.945 0.504-1.995 0.82-3.065 0.886-0.167 0.007-0.348 0.046-0.504-0.036-0.185-0.090-0.298-0.303-0.267-0.506 0.025-0.224 0.221-0.413 0.446-0.427 0.332-0.023 0.664-0.049 0.992-0.107 0.883-0.171 1.735-0.51 2.481-1.015 0.010-0.105 0.019-0.21 0.030-0.315-0.164-0.189-0.356-0.352-0.549-0.51-0.833-0.694-1.858-1.138-2.917-1.348-0.262-0.050-0.441-0.337-0.374-0.595 0.054-0.26 0.338-0.434 0.595-0.37 1.114 0.22 2.185 0.678 3.093 1.361-0.1-0.331-0.205-0.663-0.358-0.974-0.371-0.772-0.913-1.463-1.58-2.001-1.020-0.827-2.334-1.284-3.648-1.26-0.359 0.066-0.731 0.191-0.979 0.474zM27.998 9.858c-1.049 0.1-2.062 0.521-2.889 1.17-0.88 0.688-1.557 1.634-1.91 2.695 0.717-0.413 1.493-0.737 2.308-0.893 0.145-0.033 0.302 0.010 0.415 0.105 0.2 0.161 0.236 0.481 0.075 0.681-0.109 0.156-0.307 0.192-0.48 0.226-0.434 0.119-0.868 0.248-1.272 0.45-0.483 0.218-0.929 0.51-1.341 0.84 0.007 0.271 0.066 0.539 0.070 0.811 0.834 0.58 1.809 0.953 2.814 1.1 0.209 0.036 0.457 0.001 0.621 0.164 0.228 0.199 0.201 0.6-0.052 0.767-0.174 0.133-0.402 0.083-0.601 0.063-0.926-0.116-1.828-0.412-2.652-0.852 0.112 0.386 0.255 0.765 0.448 1.119 0.278 0.501 0.601 0.983 1.011 1.387 0.234 0.216 0.465 0.436 0.726 0.619 0.839 0.599 1.84 0.984 2.873 1.044 0.328 0.033 0.66 0.030 0.987-0.011 0.168-0.090 0.352-0.152 0.51-0.262 0.363-0.23 0.607-0.614 0.726-1.021 0.141-0.489 0.097-1.030-0.125-1.488-0.101-0.216-0.258-0.399-0.408-0.581-0.145-0.125-0.213-0.335-0.152-0.519 0.030-0.122 0.123-0.212 0.214-0.292 0.27-0.234 0.438-0.564 0.536-0.903 0.208-0.717-0.013-1.554-0.585-2.044-0.118-0.114-0.268-0.182-0.406-0.266-0.224-0.135-0.322-0.447-0.207-0.683 0.050-0.113 0.155-0.185 0.236-0.274 0.318-0.342 0.492-0.804 0.511-1.268 0.035-0.697-0.305-1.43-0.929-1.773-0.147-0.067-0.294-0.161-0.462-0.145-0.205-0.011-0.407 0.020-0.611 0.035zM14.103 10.965c-1.058 0.433-1.969 1.201-2.598 2.153 0.222 0.053 0.422 0.172 0.592 0.322 0.4 0.339 0.644 0.825 1.063 1.144 0.214 0.172 0.497 0.29 0.773 0.22 0.345-0.089 0.607-0.353 0.836-0.612 0.269-0.325 0.519-0.683 0.888-0.905 0.257-0.164 0.585-0.231 0.879-0.134 0.379 0.124 0.672 0.416 0.918 0.718 0.256 0.327 0.526 0.666 0.903 0.858 0.244 0.126 0.544 0.125 0.787-0.001 0.414-0.208 0.692-0.593 0.974-0.946 0.246-0.29 0.527-0.595 0.912-0.685-0.264-0.394-0.576-0.754-0.921-1.079-0.452-0.412-0.976-0.742-1.53-0.999-1.401-0.628-3.062-0.653-4.477-0.054zM20.932 13.987c-0.252 0.13-0.431 0.357-0.607 0.572-0.274 0.353-0.569 0.706-0.96 0.934-0.26 0.153-0.577 0.224-0.872 0.146-0.388-0.097-0.697-0.372-0.965-0.655-0.302-0.324-0.531-0.738-0.939-0.946-0.228-0.124-0.515-0.112-0.736 0.022-0.398 0.225-0.622 0.639-0.93 0.959-0.252 0.266-0.547 0.519-0.91 0.611-0.289 0.076-0.6 0.004-0.851-0.15-0.422-0.252-0.722-0.651-1.024-1.028-0.205-0.232-0.449-0.491-0.779-0.509-0.118 0.005-0.26 0.022-0.346 0.11-0.234 0.53-0.364 1.1-0.433 1.674 0.207-0.185 0.465-0.338 0.75-0.341 0.281-0.004 0.538 0.141 0.746 0.317 0.416 0.343 0.663 0.848 1.098 1.172 0.219 0.174 0.513 0.285 0.791 0.201 0.375-0.115 0.65-0.418 0.893-0.71 0.26-0.333 0.536-0.678 0.925-0.867 0.253-0.127 0.559-0.147 0.823-0.040 0.389 0.154 0.678 0.475 0.93 0.797 0.245 0.308 0.515 0.623 0.885 0.782 0.255 0.112 0.556 0.076 0.791-0.065 0.421-0.242 0.692-0.657 0.999-1.019 0.23-0.251 0.492-0.519 0.843-0.578 0.325-0.050 0.619 0.149 0.844 0.362-0.011-0.225 0.021-0.454-0.037-0.675-0.080-0.32-0.162-0.644-0.3-0.944-0.146-0.176-0.424-0.244-0.63-0.133zM10.567 16.706c0.015 0.392 0.106 0.775 0.195 1.155 0.178-0.116 0.382-0.204 0.598-0.196 0.284 0.006 0.538 0.16 0.746 0.342 0.359 0.306 0.588 0.731 0.941 1.041 0.196 0.177 0.439 0.335 0.713 0.334 0.274 0.001 0.517-0.156 0.716-0.331 0.391-0.338 0.633-0.819 1.058-1.122 0.264-0.202 0.613-0.322 0.944-0.233 0.396 0.104 0.702 0.403 0.956 0.709 0.266 0.337 0.54 0.695 0.935 0.888 0.252 0.127 0.562 0.115 0.808-0.023 0.429-0.229 0.704-0.643 1.007-1.007 0.231-0.256 0.49-0.529 0.84-0.604 0.276-0.059 0.544 0.078 0.752 0.247 0.092-0.342 0.163-0.692 0.193-1.045 0.008-0.064-0.050-0.108-0.083-0.155-0.166-0.187-0.339-0.39-0.581-0.474-0.201-0.070-0.411 0.027-0.563 0.157-0.348 0.294-0.574 0.701-0.904 1.012-0.292 0.286-0.66 0.544-1.084 0.547-0.425-0-0.795-0.258-1.086-0.546-0.352-0.322-0.573-0.773-0.983-1.033-0.214-0.146-0.501-0.189-0.74-0.077-0.333 0.15-0.565 0.447-0.784 0.729-0.273 0.333-0.581 0.662-0.984 0.833-0.301 0.13-0.655 0.102-0.94-0.055-0.461-0.245-0.78-0.672-1.1-1.070-0.204-0.231-0.448-0.489-0.776-0.508-0.333-0.003-0.587 0.252-0.793 0.484zM11.014 18.59c0.164 0.373 0.352 0.738 0.594 1.068 0.669 0.966 1.652 1.707 2.756 2.106 0.645 0.239 1.336 0.326 2.021 0.327 0.45-0.033 0.905-0.057 1.341-0.183 0.675-0.179 1.315-0.483 1.881-0.891 0.839-0.605 1.506-1.443 1.914-2.393-0.11-0.073-0.233-0.14-0.37-0.135-0.184 0.004-0.343 0.116-0.474 0.236-0.326 0.305-0.553 0.699-0.884 0.999-0.289 0.274-0.657 0.515-1.071 0.503-0.438-0.014-0.81-0.294-1.106-0.595-0.319-0.311-0.535-0.724-0.915-0.972-0.21-0.147-0.491-0.202-0.731-0.099-0.322 0.134-0.553 0.411-0.762 0.68-0.244 0.308-0.515 0.606-0.856 0.807-0.25 0.148-0.555 0.214-0.839 0.138-0.374-0.098-0.675-0.364-0.932-0.64-0.309-0.328-0.536-0.752-0.945-0.971-0.193-0.109-0.431-0.089-0.621 0.014z"></path>
</symbol>
<symbol id="icon-icon4" viewBox="0 0 32 32">
<title>icon4</title>
<path class="path1" d="M3.343 8.918c0.125-0.022 0.241-0.085 0.369-0.091 1.195-0.046 2.398 0.241 3.446 0.815 0.87 0.475 1.628 1.149 2.208 1.952 0.38 0.519 0.677 1.096 0.903 1.697 0.611-1.242 1.612-2.286 2.829-2.944 1.086-0.59 2.338-0.873 3.572-0.795 1.568 0.085 3.089 0.759 4.221 1.843 0.568 0.56 1.064 1.204 1.399 1.931 0.356-1.037 0.981-1.981 1.789-2.721 0.86-0.804 1.94-1.366 3.089-1.621 0.584-0.138 1.19-0.19 1.788-0.14 0.317 0.115 0.638 0.247 0.904 0.46 0.717 0.531 1.126 1.426 1.13 2.311 0.010 0.633-0.18 1.271-0.549 1.787 0.32 0.26 0.581 0.588 0.764 0.958 0.528 1.038 0.396 2.388-0.362 3.281 0.605 0.785 0.772 1.873 0.457 2.809-0.268 0.824-0.927 1.546-1.777 1.772-0.088 0.043-0.171 0.104-0.272 0.108-0.215 0.018-0.43 0.035-0.646 0.041-0.649-0.027-1.303-0.084-1.924-0.284-0.904-0.269-1.74-0.744-2.456-1.354-0.681-0.59-1.238-1.321-1.636-2.129-0.364 1.023-0.975 1.958-1.772 2.695-0.884 0.824-1.996 1.398-3.179 1.646-0.317 0.070-0.643 0.087-0.966 0.117-0.343 0.036-0.689 0.012-1.031-0.017-1.221-0.092-2.395-0.573-3.375-1.298-0.458-0.359-0.896-0.751-1.245-1.219-0.457-0.574-0.818-1.226-1.061-1.918-0.465 0.964-1.174 1.804-2.030 2.444-0.992 0.732-2.188 1.201-3.422 1.281-0.148 0.011-0.296 0.021-0.444 0.031-0.279 0.017-0.556-0.043-0.836-0.032-0.199 0.006-0.391-0.060-0.576-0.125-0.367-0.144-0.711-0.361-0.974-0.658-0.937-0.988-1.042-2.641-0.252-3.746-0.45-0.478-0.705-1.118-0.764-1.768-0.014-0.096-0.011-0.194-0.003-0.29-0.021-0.486 0.115-0.972 0.343-1.399 0.192-0.385 0.488-0.712 0.831-0.969-0.361-0.533-0.533-1.184-0.506-1.826 0.026-0.393 0.117-0.784 0.282-1.143 0.198-0.43 0.507-0.808 0.885-1.092 0.255-0.181 0.535-0.338 0.845-0.4zM3.194 10.043c-0.166 0.094-0.296 0.236-0.422 0.376-0.33 0.388-0.474 0.918-0.436 1.422 0.040 0.443 0.195 0.89 0.508 1.214 0.108 0.107 0.169 0.262 0.149 0.414-0.012 0.155-0.127 0.27-0.189 0.405-0.066 0.136-0.212 0.196-0.332 0.274-0.377 0.243-0.627 0.641-0.756 1.063-0.068 0.224-0.066 0.46-0.062 0.691 0.033 0.494 0.227 0.994 0.605 1.325 0.119 0.117 0.29 0.181 0.372 0.334 0.111 0.189 0.073 0.447-0.085 0.597-0.075 0.078-0.178 0.114-0.279 0.142-0.090 0.178-0.209 0.344-0.262 0.539-0.156 0.443-0.149 0.939 0.012 1.38 0.097 0.295 0.269 0.572 0.516 0.765 0.187 0.173 0.417 0.305 0.668 0.352 0.203-0.001 0.404 0.018 0.606 0.034 0.188 0.018 0.375-0.009 0.562-0.020 1.296-0.069 2.549-0.637 3.489-1.527 0.798-0.751 1.372-1.733 1.641-2.795-1.039 0.556-2.207 0.879-3.387 0.9-0.25-0.012-0.461-0.243-0.454-0.492-0.007-0.25 0.205-0.479 0.454-0.492 0.331-0.023 0.662-0.049 0.988-0.107 0.883-0.171 1.735-0.51 2.481-1.015 0.009-0.105 0.019-0.21 0.030-0.315-0.164-0.189-0.355-0.351-0.548-0.509-0.832-0.694-1.857-1.138-2.916-1.348-0.17-0.034-0.313-0.166-0.365-0.33-0.065-0.197 0.009-0.429 0.178-0.55 0.12-0.092 0.281-0.114 0.426-0.081 1.107 0.222 2.172 0.678 3.075 1.359-0.122-0.407-0.259-0.813-0.466-1.186-0.36-0.682-0.859-1.29-1.456-1.777-1.024-0.835-2.345-1.298-3.666-1.273-0.234 0.044-0.469 0.11-0.678 0.229zM27.998 9.858c-1.049 0.1-2.062 0.521-2.889 1.17-0.88 0.688-1.557 1.634-1.91 2.695 0.725-0.418 1.512-0.746 2.338-0.898 0.238-0.041 0.485 0.125 0.545 0.358 0.075 0.245-0.079 0.53-0.325 0.601-0.533 0.126-1.065 0.282-1.557 0.528-0.466 0.214-0.895 0.5-1.296 0.818 0.007 0.272 0.066 0.54 0.071 0.813 0.937 0.647 2.045 1.043 3.18 1.138 0.189 0.027 0.35 0.178 0.396 0.362 0.057 0.202-0.035 0.432-0.212 0.542-0.112 0.076-0.252 0.087-0.382 0.070-0.996-0.092-1.969-0.402-2.851-0.872 0.212 0.777 0.611 1.492 1.109 2.121 0.863 1.037 2.095 1.77 3.43 1.992 0.499 0.066 1.005 0.114 1.506 0.045 0.259-0.124 0.531-0.237 0.74-0.442 0.724-0.699 0.77-1.956 0.118-2.717-0.097-0.159-0.277-0.266-0.316-0.458-0.044-0.175 0.020-0.369 0.156-0.486 0.551-0.46 0.781-1.245 0.635-1.939-0.087-0.408-0.297-0.797-0.618-1.069-0.129-0.126-0.299-0.193-0.445-0.292-0.251-0.18-0.296-0.594-0.059-0.805 0.529-0.466 0.744-1.231 0.596-1.913-0.092-0.423-0.307-0.834-0.659-1.097-0.154-0.137-0.345-0.223-0.538-0.291-0.253-0.034-0.509 0.003-0.762 0.024zM16.040 10.538c-0.989 0.035-1.966 0.344-2.799 0.876-1.005 0.629-1.796 1.585-2.248 2.679-0.453 1.108-0.568 2.361-0.286 3.527 0.125 0.613 0.38 1.194 0.697 1.731 0.295 0.459 0.63 0.899 1.044 1.257 0.935 0.851 2.158 1.396 3.425 1.463 0.44 0.049 0.881-0.006 1.319-0.052 1.35-0.211 2.607-0.941 3.474-1.995 0.765-0.924 1.234-2.091 1.315-3.289-0.009-0.236-0.066-0.468-0.069-0.705-0.028-0.288 0.008-0.578-0.028-0.864-0.187-0.926-0.6-1.808-1.2-2.538-0.352-0.425-0.754-0.814-1.22-1.113-0.995-0.686-2.215-1.035-3.421-0.977z"></path>
<path class="path2" d="M28.864 11.233c0.123-0.065 0.276-0.022 0.366 0.079 0.191 0.211 0.195 0.565 0.015 0.785-0.084 0.104-0.233 0.162-0.359 0.104-0.277-0.12-0.518-0.308-0.757-0.488 0.233-0.176 0.469-0.356 0.736-0.479z"></path>
<path class="path3" d="M3.476 11.507c0.081-0.113 0.237-0.185 0.371-0.124 0.278 0.12 0.52 0.308 0.761 0.489-0.233 0.177-0.469 0.357-0.736 0.48-0.116 0.060-0.261 0.028-0.351-0.064-0.2-0.202-0.212-0.555-0.045-0.78z"></path>
<path class="path4" d="M29.345 15.296c0.123-0.065 0.277-0.021 0.366 0.081 0.189 0.212 0.193 0.564 0.014 0.782-0.084 0.103-0.232 0.163-0.359 0.105-0.277-0.12-0.519-0.308-0.759-0.488 0.234-0.177 0.47-0.357 0.737-0.48z"></path>
<path class="path5" d="M3.025 15.536c0.089-0.101 0.243-0.145 0.366-0.080 0.267 0.123 0.503 0.303 0.736 0.48-0.234 0.177-0.47 0.357-0.738 0.48-0.123 0.063-0.275 0.021-0.364-0.080-0.196-0.216-0.196-0.584-0.001-0.8z"></path>
<path class="path6" d="M29.344 19.393c0.123-0.066 0.277-0.023 0.367 0.079 0.19 0.211 0.194 0.564 0.015 0.783-0.084 0.104-0.233 0.164-0.36 0.105-0.277-0.12-0.518-0.308-0.758-0.488 0.233-0.176 0.469-0.356 0.736-0.479z"></path>
<path class="path7" d="M3.011 19.648c0.084-0.103 0.232-0.163 0.358-0.104 0.277 0.12 0.518 0.308 0.758 0.488-0.233 0.177-0.469 0.356-0.736 0.479-0.124 0.065-0.279 0.022-0.368-0.081-0.189-0.212-0.192-0.564-0.013-0.782z"></path>
</symbol>
<symbol id="icon-icon5" viewBox="0 0 32 32">
<title>icon5</title>
<path class="path1" d="M3.244 8.943c0.158-0.030 0.308-0.098 0.468-0.115 1.018-0.037 2.046 0.161 2.974 0.582 0.878 0.391 1.668 0.978 2.297 1.704 0.561 0.637 0.99 1.385 1.287 2.179 0.61-1.243 1.612-2.287 2.83-2.945 1.095-0.595 2.358-0.876 3.601-0.793 1.151 0.072 2.285 0.449 3.243 1.091 0.768 0.493 1.414 1.163 1.92 1.921 0.157 0.246 0.313 0.495 0.426 0.765 0.559-1.647 1.804-3.042 3.361-3.811 0.482-0.24 0.994-0.42 1.52-0.537 0.584-0.138 1.19-0.19 1.788-0.138 0.316 0.114 0.636 0.247 0.902 0.459 0.743 0.551 1.154 1.49 1.13 2.407-0.009 0.601-0.199 1.201-0.549 1.691 0.684 0.553 1.092 1.429 1.079 2.308 0.014 0.696-0.228 1.396-0.677 1.929 0.61 0.794 0.776 1.895 0.448 2.838-0.26 0.771-0.86 1.446-1.642 1.707-0.144 0.020-0.253 0.136-0.399 0.146-0.353 0.032-0.707 0.057-1.060 0.018-1.986-0.092-3.883-1.171-5.029-2.787-0.215-0.302-0.404-0.622-0.571-0.953-0.366 1.020-0.975 1.955-1.772 2.691-0.84 0.782-1.885 1.341-3.001 1.606-0.447 0.116-0.91 0.137-1.368 0.173-0.756 0.007-1.519-0.081-2.239-0.321-1.108-0.36-2.111-1.022-2.898-1.879-0.586-0.663-1.059-1.431-1.35-2.268-0.489 1.011-1.244 1.888-2.159 2.536-0.78 0.552-1.68 0.931-2.619 1.108-0.37 0.063-0.745 0.085-1.119 0.11-0.278 0.016-0.554-0.042-0.831-0.032-0.199 0.006-0.392-0.060-0.577-0.125-0.369-0.144-0.713-0.362-0.977-0.66-0.936-0.988-1.040-2.64-0.25-3.746-0.544-0.583-0.813-1.399-0.769-2.191 0.004-0.442 0.137-0.877 0.344-1.265 0.193-0.385 0.488-0.712 0.831-0.969-0.402-0.597-0.574-1.34-0.485-2.053 0.065-0.454 0.209-0.902 0.466-1.285 0.337-0.508 0.836-0.927 1.426-1.099zM3.681 9.856c-0.294 0.070-0.583 0.2-0.787 0.43-0.412 0.397-0.603 0.99-0.559 1.555 0.040 0.442 0.195 0.889 0.507 1.214 0.108 0.107 0.17 0.261 0.15 0.413-0.013 0.155-0.125 0.272-0.189 0.406-0.062 0.129-0.197 0.191-0.313 0.262-0.424 0.266-0.699 0.725-0.807 1.206-0.113 0.66 0.049 1.406 0.557 1.869 0.127 0.13 0.318 0.197 0.4 0.369 0.099 0.187 0.057 0.432-0.095 0.578-0.074 0.078-0.178 0.113-0.279 0.143-0.092 0.178-0.21 0.344-0.263 0.54-0.229 0.652-0.103 1.425 0.335 1.962 0.235 0.245 0.518 0.474 0.862 0.534 0.321-0.006 0.64 0.064 0.961 0.029 0.268-0.018 0.537-0.037 0.803-0.080 1.064-0.19 2.072-0.692 2.86-1.433 0.815-0.754 1.401-1.748 1.673-2.825-1.038 0.555-2.205 0.879-3.384 0.9-0.25-0.010-0.463-0.242-0.456-0.492-0.007-0.25 0.204-0.479 0.454-0.492 0.331-0.023 0.662-0.048 0.988-0.107 0.883-0.172 1.736-0.51 2.482-1.015 0.009-0.105 0.018-0.209 0.030-0.314-0.907-0.968-2.143-1.596-3.438-1.852-0.18-0.029-0.337-0.161-0.392-0.336-0.071-0.211 0.020-0.463 0.214-0.575 0.13-0.084 0.292-0.083 0.437-0.048 1.089 0.227 2.137 0.679 3.027 1.35-0.102-0.332-0.206-0.664-0.36-0.976-0.368-0.767-0.906-1.452-1.565-1.988-0.932-0.759-2.11-1.213-3.312-1.266-0.181-0.007-0.368-0.027-0.542 0.036zM27.899 9.868c-0.939 0.107-1.842 0.472-2.608 1.022-0.966 0.699-1.716 1.699-2.092 2.833 0.725-0.417 1.51-0.746 2.336-0.897 0.25-0.044 0.508 0.141 0.554 0.389 0.061 0.258-0.124 0.537-0.383 0.585-1.021 0.22-1.994 0.67-2.803 1.334 0.005 0.226 0.054 0.447 0.062 0.673 0.009 0.060-0.009 0.142 0.060 0.173 0.926 0.625 2.015 1.011 3.129 1.103 0.181 0.026 0.337 0.164 0.39 0.338 0.076 0.222-0.035 0.486-0.245 0.59-0.161 0.088-0.348 0.044-0.521 0.029-0.934-0.113-1.844-0.412-2.674-0.854 0.22 0.799 0.633 1.535 1.155 2.175 0.214 0.265 0.473 0.486 0.725 0.713 0.753 0.622 1.666 1.051 2.629 1.22 0.509 0.068 1.028 0.122 1.54 0.048 0.188-0.096 0.389-0.17 0.56-0.297 0.284-0.193 0.482-0.488 0.612-0.802 0.204-0.52 0.188-1.122-0.044-1.63-0.106-0.24-0.276-0.444-0.446-0.641-0.142-0.131-0.195-0.348-0.125-0.529 0.060-0.178 0.238-0.27 0.351-0.41 0.528-0.631 0.622-1.593 0.205-2.307-0.172-0.327-0.458-0.585-0.788-0.748-0.296-0.157-0.374-0.614-0.118-0.842 0.646-0.569 0.815-1.571 0.457-2.342-0.198-0.456-0.6-0.824-1.079-0.964-0.281-0.026-0.561 0.014-0.839 0.039zM16.041 10.538c-0.624 0.022-1.244 0.151-1.824 0.381-1.18 0.456-2.197 1.321-2.84 2.41-0.676 1.116-0.942 2.464-0.776 3.755 0.095 0.569 0.228 1.137 0.482 1.658 0.228 0.518 0.551 0.989 0.916 1.42 0.798 0.89 1.87 1.543 3.042 1.796 0.346 0.083 0.702 0.104 1.056 0.127 0.3 0.022 0.6-0.020 0.899-0.045 0.434-0.035 0.855-0.156 1.263-0.302 1.062-0.396 2.001-1.115 2.656-2.040 0.624-0.873 1.003-1.924 1.065-2.996-0.049-0.392-0.093-0.786-0.082-1.181 0.008-0.177-0.004-0.355-0.052-0.526-0.207-0.877-0.613-1.709-1.192-2.401-0.35-0.418-0.75-0.798-1.211-1.092-0.991-0.677-2.203-1.021-3.402-0.964z"></path>
<path class="path2" d="M4.78 10.352c0.259-0.072 0.55 0.106 0.603 0.37 0.067 0.258-0.115 0.543-0.376 0.594-0.266 0.066-0.557-0.132-0.593-0.403-0.047-0.245 0.124-0.504 0.367-0.56z"></path>
<path class="path3" d="M28.461 10.996c0.254-0.090 0.558 0.068 0.628 0.329 0.089 0.269-0.102 0.583-0.382 0.627-0.261 0.056-0.54-0.136-0.579-0.4-0.046-0.235 0.105-0.485 0.333-0.556z"></path>
<path class="path4" d="M18.22 11.629c0.284-0.088 0.607 0.134 0.624 0.431 0.034 0.273-0.2 0.54-0.475 0.54-0.261 0.017-0.505-0.207-0.51-0.468-0.017-0.226 0.143-0.446 0.361-0.502z"></path>
<path class="path5" d="M14.379 12.624c0.273-0.113 0.612 0.076 0.659 0.367 0.057 0.256-0.125 0.532-0.383 0.58-0.238 0.055-0.499-0.094-0.571-0.327-0.087-0.243 0.051-0.535 0.295-0.62z"></path>
<path class="path6" d="M3.244 14.192c0.247-0.053 0.514 0.114 0.572 0.36 0.054 0.239-0.052 0.526-0.282 0.632-0.208 0.105-0.482 0.034-0.614-0.156-0.216-0.288-0.037-0.776 0.324-0.836z"></path>
<path class="path7" d="M17.741 14.255c0.266-0.092 0.58 0.090 0.631 0.367 0.065 0.261-0.124 0.548-0.389 0.591-0.249 0.054-0.518-0.118-0.573-0.366-0.067-0.245 0.088-0.521 0.332-0.591z"></path>
<path class="path8" d="M24.745 14.54c0.264-0.107 0.591 0.065 0.652 0.342 0.077 0.271-0.125 0.575-0.404 0.61-0.262 0.048-0.534-0.153-0.564-0.418-0.037-0.224 0.102-0.459 0.316-0.534z"></path>
<path class="path9" d="M6.83 15.061c0.273-0.067 0.57 0.144 0.594 0.424 0.040 0.268-0.178 0.536-0.447 0.551-0.263 0.031-0.521-0.185-0.535-0.449-0.028-0.241 0.151-0.48 0.388-0.526z"></path>
<path class="path10" d="M11.726 15.444c0.315-0.080 0.672 0.195 0.659 0.524 0 0.198-0.134 0.387-0.321 0.453-0.308 0.121-0.689-0.126-0.714-0.454-0.024-0.236 0.145-0.47 0.375-0.523z"></path>
<path class="path11" d="M28.105 15.468c0.335-0.135 0.727 0.183 0.701 0.533-0.008 0.229-0.197 0.433-0.425 0.46-0.325 0.050-0.648-0.27-0.597-0.596 0.022-0.179 0.151-0.338 0.321-0.398z"></path>
<path class="path12" d="M19.626 16.14c0.256-0.103 0.572 0.055 0.645 0.32 0.088 0.264-0.092 0.573-0.364 0.626-0.246 0.062-0.517-0.099-0.583-0.343-0.076-0.24 0.064-0.521 0.303-0.603z"></path>
<path class="path13" d="M15.086 16.407c0.271-0.086 0.583 0.11 0.623 0.391 0.056 0.273-0.163 0.56-0.441 0.577-0.262 0.032-0.52-0.181-0.537-0.444-0.028-0.231 0.132-0.464 0.356-0.524z"></path>
<path class="path14" d="M13.23 18.419c0.237-0.065 0.506 0.076 0.585 0.309 0.076 0.226 0.007 0.513-0.203 0.644-0.204 0.138-0.505 0.090-0.655-0.106-0.227-0.274-0.086-0.768 0.273-0.847z"></path>
<path class="path15" d="M25.58 18.674c0.273-0.088 0.588 0.111 0.626 0.395 0.053 0.273-0.166 0.556-0.443 0.572-0.258 0.031-0.513-0.177-0.535-0.436-0.032-0.233 0.127-0.47 0.353-0.532z"></path>
<path class="path16" d="M3.718 19.305c0.293-0.116 0.649 0.119 0.657 0.434 0.034 0.342-0.34 0.624-0.662 0.536-0.219-0.054-0.383-0.273-0.367-0.499 0.001-0.22 0.171-0.405 0.373-0.471z"></path>
<path class="path17" d="M28.686 19.32c0.285-0.093 0.611 0.128 0.631 0.426 0.047 0.238-0.096 0.499-0.33 0.571-0.271 0.102-0.598-0.089-0.644-0.374-0.066-0.257 0.080-0.554 0.343-0.623z"></path>
<path class="path18" d="M18.060 19.925c0.271-0.11 0.606 0.074 0.657 0.362 0.065 0.269-0.14 0.561-0.415 0.591-0.254 0.043-0.516-0.147-0.556-0.401-0.046-0.229 0.094-0.474 0.314-0.552z"></path>
</symbol>
<symbol id="icon-icon6" viewBox="0 0 32 32">
<title>icon6</title>
<path class="path1" d="M2.941 9.053c0.204-0.102 0.432-0.132 0.646-0.204 0.041-0.012 0.083-0.019 0.125-0.020 1.066-0.040 2.14 0.181 3.103 0.642 0.84 0.396 1.593 0.973 2.197 1.678 0.547 0.629 0.966 1.364 1.257 2.144 0.546-1.107 1.4-2.062 2.447-2.718 1.118-0.713 2.455-1.076 3.78-1.029 1.214 0.038 2.417 0.417 3.429 1.088 0.807 0.518 1.485 1.226 2.002 2.032 0.134 0.213 0.262 0.431 0.363 0.662 0.356-1.037 0.981-1.982 1.79-2.722 0.867-0.81 1.958-1.375 3.117-1.627 0.575-0.134 1.171-0.182 1.759-0.133 0.317 0.116 0.64 0.247 0.906 0.462 0.716 0.531 1.124 1.425 1.128 2.308 0.011 0.633-0.18 1.271-0.55 1.787 0.43 0.346 0.746 0.82 0.926 1.34 0.278 0.839 0.186 1.8-0.277 2.558-0.076 0.119-0.164 0.229-0.247 0.343 0.606 0.782 0.771 1.87 0.458 2.804-0.268 0.825-0.929 1.549-1.781 1.775-0.086 0.044-0.169 0.103-0.268 0.107-0.225 0.017-0.45 0.038-0.675 0.041-0.392-0.020-0.784-0.045-1.172-0.109-0.992-0.178-1.939-0.592-2.75-1.19-0.879-0.634-1.588-1.496-2.065-2.468-0.363 1.022-0.974 1.957-1.771 2.693-0.861 0.803-1.94 1.37-3.089 1.628-0.357 0.087-0.725 0.107-1.090 0.14-0.332 0.033-0.667 0.007-0.999-0.020-1.22-0.092-2.394-0.572-3.373-1.297-0.458-0.359-0.897-0.751-1.246-1.22-0.457-0.574-0.818-1.226-1.061-1.918-0.466 0.962-1.173 1.802-2.028 2.442-0.992 0.733-2.189 1.203-3.423 1.282-0.148 0.011-0.296 0.021-0.444 0.031-0.257 0.016-0.513-0.034-0.77-0.033-0.271 0.019-0.533-0.077-0.779-0.181-0.493-0.216-0.906-0.596-1.183-1.056-0.606-0.991-0.583-2.342 0.094-3.292-0.31-0.331-0.531-0.74-0.655-1.175-0.079-0.297-0.138-0.606-0.112-0.915-0.019-0.428 0.096-0.854 0.277-1.239 0.198-0.435 0.512-0.812 0.897-1.096-0.366-0.542-0.54-1.205-0.503-1.856 0.049-0.711 0.329-1.419 0.844-1.921 0.212-0.235 0.484-0.407 0.764-0.549zM3.392 9.948c-0.287 0.104-0.509 0.326-0.692 0.564-0.553 0.756-0.476 1.904 0.174 2.579 0.142 0.155 0.164 0.406 0.047 0.582-0.048 0.073-0.088 0.151-0.131 0.227-0.088 0.149-0.265 0.199-0.394 0.302-0.365 0.269-0.604 0.685-0.708 1.122-0.122 0.665 0.039 1.422 0.553 1.89 0.127 0.131 0.318 0.197 0.4 0.369 0.099 0.187 0.057 0.432-0.096 0.578-0.074 0.077-0.177 0.114-0.278 0.141-0.091 0.179-0.211 0.345-0.264 0.541-0.127 0.362-0.146 0.76-0.060 1.133 0.090 0.383 0.27 0.764 0.588 1.009 0.186 0.173 0.416 0.305 0.667 0.353 0.204-0.001 0.406 0.018 0.609 0.034 0.187 0.018 0.373-0.009 0.56-0.019 1.205-0.064 2.374-0.561 3.287-1.345 0.901-0.772 1.553-1.827 1.843-2.978-1.038 0.556-2.206 0.879-3.385 0.9-0.25-0.011-0.461-0.241-0.455-0.491-0.007-0.25 0.203-0.479 0.453-0.493 0.331-0.022 0.663-0.049 0.99-0.107 0.883-0.172 1.736-0.51 2.481-1.015 0.009-0.104 0.019-0.209 0.030-0.312-0.163-0.191-0.356-0.353-0.55-0.512-0.768-0.641-1.701-1.068-2.671-1.295-0.154-0.040-0.328-0.044-0.453-0.154-0.175-0.14-0.23-0.405-0.125-0.604 0.097-0.2 0.336-0.31 0.552-0.26 1.115 0.22 2.187 0.678 3.096 1.362-0.067-0.232-0.148-0.46-0.23-0.687-0.516-1.245-1.475-2.311-2.682-2.919-0.764-0.398-1.622-0.613-2.484-0.63-0.233-0.024-0.457 0.058-0.672 0.134zM27.453 9.936c-0.843 0.179-1.649 0.546-2.327 1.078-0.889 0.689-1.573 1.64-1.927 2.708 0.716-0.413 1.492-0.737 2.307-0.893 0.236-0.055 0.494 0.096 0.566 0.326 0.083 0.226-0.032 0.502-0.251 0.603-0.168 0.069-0.353 0.081-0.523 0.144-0.873 0.235-1.694 0.659-2.396 1.229 0.007 0.272 0.066 0.539 0.070 0.812 0.936 0.648 2.045 1.044 3.179 1.139 0.188 0.027 0.349 0.176 0.396 0.359 0.064 0.218-0.050 0.469-0.253 0.569-0.167 0.090-0.36 0.040-0.538 0.026-0.927-0.116-1.83-0.412-2.653-0.852 0.197 0.718 0.551 1.385 0.999 1.978 0.262 0.362 0.595 0.663 0.932 0.953 0.744 0.599 1.638 1.012 2.58 1.177 0.509 0.069 1.027 0.119 1.538 0.049 0.256-0.125 0.527-0.236 0.735-0.439 0.702-0.676 0.771-1.882 0.177-2.648-0.083-0.099-0.152-0.209-0.245-0.299-0.151-0.146-0.182-0.391-0.084-0.574 0.087-0.154 0.25-0.243 0.355-0.384 0.219-0.279 0.361-0.62 0.413-0.97 0.13-0.788-0.254-1.669-0.986-2.028-0.245-0.115-0.378-0.422-0.281-0.677 0.058-0.17 0.226-0.259 0.327-0.399 0.581-0.708 0.584-1.815 0.012-2.53-0.214-0.266-0.508-0.47-0.837-0.566-0.43-0.027-0.86 0.040-1.284 0.107zM16.039 10.538c-0.843 0.028-1.674 0.26-2.419 0.653-1.014 0.539-1.865 1.387-2.393 2.408-0.579 1.076-0.786 2.342-0.616 3.55 0.073 0.374 0.141 0.753 0.275 1.111 0.21 0.588 0.509 1.146 0.899 1.635 0.306 0.415 0.693 0.76 1.098 1.076 0.827 0.604 1.81 1.011 2.836 1.088 0.285 0.024 0.572 0.050 0.858 0.020 0.333-0.031 0.669-0.047 0.994-0.131 1.182-0.276 2.268-0.942 3.050-1.87 0.735-0.866 1.205-1.952 1.335-3.080 0.014-0.139 0.037-0.279 0.013-0.418-0.062-0.382-0.078-0.77-0.070-1.156 0.009-0.298-0.096-0.582-0.173-0.865-0.36-1.141-1.079-2.167-2.036-2.887-0.431-0.303-0.886-0.58-1.383-0.763-0.719-0.279-1.497-0.405-2.267-0.37z"></path>
<path class="path2" d="M28.558 10.772c0.253-0.106 0.571 0.044 0.649 0.308 0.092 0.258-0.075 0.567-0.341 0.631-0.255 0.076-0.547-0.093-0.607-0.351-0.067-0.235 0.070-0.503 0.299-0.587z"></path>
<path class="path3" d="M3.12 10.871c0.271-0.084 0.582 0.112 0.621 0.393 0.055 0.273-0.164 0.558-0.442 0.575-0.26 0.031-0.518-0.18-0.537-0.442-0.029-0.233 0.132-0.468 0.358-0.527z"></path>
<path class="path4" d="M29.325 14.801c0.246-0.047 0.506 0.123 0.561 0.367 0.088 0.323-0.211 0.678-0.543 0.654-0.232-0.005-0.438-0.198-0.465-0.428-0.041-0.275 0.18-0.546 0.447-0.594z"></path>
<path class="path5" d="M2.574 15.129c0.268-0.083 0.576 0.109 0.619 0.387 0.059 0.274-0.16 0.564-0.439 0.581-0.262 0.033-0.521-0.181-0.539-0.444-0.028-0.232 0.134-0.466 0.359-0.524z"></path>
<path class="path6" d="M16.75 15.47c0.155-0.195 0.463-0.233 0.663-0.085 0.208 0.14 0.273 0.448 0.137 0.659-0.080 0.122-0.173 0.236-0.247 0.362-0.124 0.208-0.274 0.402-0.362 0.63-0.1 0.234-0.397 0.347-0.629 0.249-0.109-0.040-0.19-0.126-0.255-0.218-0.179-0.245-0.384-0.469-0.593-0.689-0.17-0.184-0.159-0.497 0.020-0.671 0.158-0.167 0.435-0.198 0.625-0.067 0.118 0.084 0.208 0.201 0.306 0.306 0.104-0.164 0.217-0.323 0.336-0.476z"></path>
<path class="path7" d="M2.859 19.184c0.255-0.094 0.563 0.065 0.634 0.328 0.084 0.26-0.090 0.564-0.358 0.621-0.254 0.068-0.537-0.103-0.596-0.358-0.067-0.242 0.081-0.515 0.32-0.59z"></path>
<path class="path8" d="M29.167 19.191c0.278-0.082 0.592 0.132 0.616 0.421 0.041 0.275-0.192 0.549-0.47 0.551-0.255 0.018-0.496-0.193-0.513-0.448-0.027-0.234 0.138-0.468 0.366-0.524z"></path>
</symbol>
</defs>
</svg>
